<svg width="154" height="155" viewBox="0 0 154 155" fill="none" xmlns="http://www.w3.org/2000/svg">
<circle cx="76.665" cy="77.665" r="76.665" fill="currentColor"/>
<path d="M61.344 59.3854C61.344 67.1321 55.8747 73.4121 49.1267 73.4121C42.38 73.4121 36.9106 67.1321 36.9106 59.3854C36.9106 51.6388 42.38 45.3601 49.1267 45.3601C55.8747 45.3601 61.344 51.6388 61.344 59.3854Z" fill="#21214D"/>
<path d="M116.423 59.3854C116.423 67.1321 110.953 73.4121 104.207 73.4121C97.4601 73.4121 91.9907 67.1321 91.9907 59.3854C91.9907 51.6388 97.4601 45.3601 104.207 45.3601C110.953 45.3601 116.423 51.6388 116.423 59.3854Z" fill="#21214D"/>
<path d="M51.2097 55.224C51.2097 57.672 49.2243 59.6587 46.775 59.6587C44.3256 59.6587 42.3403 57.672 42.3403 55.224C42.3403 52.7747 44.3256 50.7894 46.775 50.7894C49.2243 50.7894 51.2097 52.7747 51.2097 55.224Z" fill="white"/>
<path d="M106.29 55.224C106.29 57.672 104.304 59.6587 101.855 59.6587C99.4057 59.6587 97.4204 57.672 97.4204 55.224C97.4204 52.7747 99.4057 50.7894 101.855 50.7894C104.304 50.7894 106.29 52.7747 106.29 55.224Z" fill="white"/>
<path d="M109.872 106.008L109.799 105.936C107.5 103.945 103.7 104.505 100.787 106.533C96.8776 109.284 92.6242 111.184 88.2442 112.288C84.6602 113.375 80.7509 113.972 76.6602 113.972C72.5522 113.972 68.6429 113.375 65.0416 112.271C60.6789 111.167 56.4443 109.265 52.5536 106.533C49.6389 104.505 45.8389 103.945 43.5403 105.936L43.4496 106.008C41.1696 107.944 41.7843 112.505 45.4043 115.619C53.3629 122.449 63.1189 126.48 73.2989 127.573C74.4096 127.639 75.5296 127.684 76.6669 127.684C77.8069 127.684 78.9296 127.639 80.0429 127.573C90.2216 126.479 99.9763 122.449 107.918 115.619C111.555 112.505 112.171 107.944 109.872 106.008Z" fill="#21214D"/>
</svg>
