<svg width="154" height="155" viewBox="0 0 154 155" fill="none" xmlns="http://www.w3.org/2000/svg">
<circle cx="76.665" cy="77.665" r="76.665" fill="currentColor"/>
<path d="M55.2944 127.25L55.3678 127.289C57.6864 128.304 61.0024 127.261 63.3304 125.337C66.4491 122.732 69.9891 120.668 73.7491 119.145C76.8011 117.771 80.2091 116.685 83.8598 115.991C87.5251 115.292 91.0945 115.049 94.4558 115.216C98.4958 115.253 102.53 115.874 106.37 117.141C109.242 118.078 112.709 117.826 114.493 116.032L114.564 115.965C116.338 114.212 115.177 111.099 111.529 109.517C103.509 106.05 94.2624 104.866 85.0318 105.824C84.0318 105.966 83.0264 106.124 82.0118 106.317C80.9944 106.511 79.9985 106.733 79.0131 106.969C70.0785 109.471 61.9158 113.971 55.7478 120.138C52.9198 122.953 52.9824 126.275 55.2944 127.25Z" fill="#21214D"/>
<path d="M61.344 63.3069C61.344 71.0537 55.8746 77.3335 49.128 77.3335C42.38 77.3335 36.9106 71.0537 36.9106 63.3069C36.9106 55.56 42.38 49.2803 49.128 49.2803C55.8746 49.2803 61.344 55.56 61.344 63.3069Z" fill="#21214D"/>
<path d="M116.424 63.3069C116.424 71.0537 110.955 77.3335 104.207 77.3335C97.46 77.3335 91.9907 71.0537 91.9907 63.3069C91.9907 55.56 97.46 49.2803 104.207 49.2803C110.955 49.2803 116.424 55.56 116.424 63.3069Z" fill="#21214D"/>
<path d="M51.2094 59.1442C51.2094 61.5931 49.2241 63.5786 46.7748 63.5786C44.3254 63.5786 42.3401 61.5931 42.3401 59.1442C42.3401 56.6958 44.3254 54.7093 46.7748 54.7093C49.2241 54.7093 51.2094 56.6958 51.2094 59.1442Z" fill="white"/>
<path d="M106.29 59.1442C106.29 61.5931 104.304 63.5786 101.855 63.5786C99.4055 63.5786 97.4202 61.5931 97.4202 59.1442C97.4202 56.6958 99.4055 54.7093 101.855 54.7093C104.304 54.7093 106.29 56.6958 106.29 59.1442Z" fill="white"/>
</svg>
