<svg width="25" height="24" viewBox="0 0 25 24" fill="none" xmlns="http://www.w3.org/2000/svg">
<path d="M22.25 12C23.4688 12 24.5 13.0313 24.5 14.25V20.25C24.5 21.5156 23.4688 22.5 22.25 22.5H16.25C14.9844 22.5 14 21.5156 14 20.25V9C14 4.875 17.3281 1.5 21.5 1.5H21.875C22.4844 1.5 23 2.01563 23 2.625V4.875C23 5.53125 22.4844 6 21.875 6H21.5C19.8125 6 18.5 7.35938 18.5 9V12H22.25ZM8.75 12C9.96875 12 11 13.0313 11 14.25V20.25C11 21.5156 9.96875 22.5 8.75 22.5H2.75C1.48438 22.5 0.5 21.5156 0.5 20.25V9C0.5 4.875 3.82813 1.5 8 1.5H8.375C8.98438 1.5 9.5 2.01563 9.5 2.625V4.875C9.5 5.53125 8.98438 6 8.375 6H8C6.3125 6 5 7.35938 5 9V12H8.75Z" fill="#4865DB"/>
</svg>
