<svg width="154" height="155" viewBox="0 0 154 155" fill="none" xmlns="http://www.w3.org/2000/svg">
<circle cx="76.665" cy="77.665" r="76.665" fill="currentColor"/>
<path d="M76.6663 127.449H91.7943C96.5623 127.449 98.8009 123.148 95.2356 120.837L94.9236 120.635C84.5089 113.887 68.8248 113.887 58.4102 120.635L58.0969 120.837C54.5315 123.148 56.7716 127.449 61.5396 127.449H76.6663Z" fill="#21214D"/>
<path d="M54.4729 83.9545C55.6996 83.4025 56.9049 82.7879 58.0035 82.0119C61.5929 79.4732 63.8649 75.1693 63.9356 70.7746C63.9462 70.1679 63.9129 69.5439 63.6636 68.9905C63.0529 67.6385 61.2729 67.1306 59.8476 67.5439C58.4236 67.9573 57.3089 69.0626 56.3862 70.2253C55.4636 71.3866 54.6529 72.6599 53.5236 73.6226C52.5409 74.4599 51.3583 75.0279 50.1623 75.5159C46.6196 76.9599 42.3796 77.7279 39.1076 75.7439C38.4396 75.3386 37.8396 74.8333 37.2343 74.3386C35.7089 73.0893 34.0769 71.8666 32.1636 71.3932C30.2489 70.9199 27.9756 71.3759 26.8196 72.9719C25.8596 74.2973 25.8609 76.1479 26.4916 77.6586C27.1209 79.1679 28.2956 80.3866 29.5529 81.4333C33.6862 84.8693 39.0836 86.8066 44.4529 86.5666C47.9222 86.4119 51.3063 85.3799 54.4729 83.9545Z" fill="#21214D"/>
<path d="M98.861 83.9545C97.6343 83.4025 96.4289 82.7879 95.3302 82.0119C91.7409 79.4732 89.4689 75.1693 89.3982 70.7746C89.3875 70.1679 89.4209 69.5439 89.6702 68.9905C90.2809 67.6385 92.0609 67.1306 93.4849 67.5439C94.9102 67.9573 96.0249 69.0626 96.9475 70.2253C97.8702 71.3866 98.6808 72.6599 99.8102 73.6226C100.793 74.4599 101.976 75.0279 103.172 75.5159C106.714 76.9599 110.954 77.7279 114.226 75.7439C114.894 75.3386 115.494 74.8333 116.1 74.3386C117.625 73.0893 119.257 71.8666 121.17 71.3932C123.085 70.9199 125.358 71.3759 126.514 72.9719C127.474 74.2973 127.473 76.1479 126.842 77.6586C126.213 79.1679 125.038 80.3866 123.781 81.4333C119.648 84.8693 114.25 86.8066 108.881 86.5666C105.412 86.4119 102.028 85.3799 98.861 83.9545Z" fill="#21214D"/>
<path opacity="0.3" d="M44.1931 46.9293C49.2717 43.3013 53.3304 41.048 56.2931 42.9146C59.2557 44.7813 59.3105 51.1786 54.9505 53.5013C50.5905 55.824 38.1625 63.1506 20.8131 58.5813C18.1531 58.0666 21.6824 51.784 28.9478 51.912C36.2131 52.0413 42.3824 48.1893 44.1931 46.9293Z" fill="#21214D"/>
<path opacity="0.3" d="M109.141 46.9293C104.063 43.3013 100.004 41.048 97.0413 42.9146C94.0787 44.7813 94.024 51.1786 98.384 53.5013C102.744 55.824 115.172 63.1506 132.521 58.5813C135.181 58.0666 131.652 51.784 124.387 51.912C117.121 52.0413 110.952 48.1893 109.141 46.9293Z" fill="#21214D"/>
</svg>
