<svg width="154" height="155" viewBox="0 0 154 155" fill="none" xmlns="http://www.w3.org/2000/svg">
<circle cx="76.665" cy="77.665" r="76.665" fill="#FF9B99"/>
<path d="M54.5147 72.5937C55.7413 72.0417 56.9453 71.427 58.044 70.651C61.6333 68.1137 63.9067 63.8083 63.9773 59.4136C63.9867 58.807 63.9533 58.183 63.704 57.6297C63.0946 56.2777 61.3146 55.7696 59.8893 56.183C58.464 56.5963 57.3493 57.7017 56.4266 58.8644C55.5053 60.027 54.6946 61.299 53.5653 62.2617C52.5826 63.099 51.4 63.667 50.204 64.155C46.6613 65.599 42.4213 66.367 39.1493 64.383C38.4813 63.979 37.88 63.4723 37.276 62.9776C35.7493 61.7283 34.1186 60.5057 32.204 60.0323C30.2906 59.559 28.0173 60.015 26.86 61.611C25.9 62.9363 25.9013 64.787 26.532 66.2977C27.1626 67.807 28.336 69.027 29.5946 70.0723C33.7266 73.5083 39.1253 75.4456 44.4933 75.2056C47.9626 75.051 51.348 74.019 54.5147 72.5937Z" fill="#21214D"/>
<path d="M98.9013 72.5937C97.6746 72.0417 96.4706 71.427 95.3719 70.651C91.7826 68.1137 89.5093 63.8083 89.4386 59.4136C89.4293 58.807 89.4626 58.183 89.712 57.6297C90.3213 56.2777 92.1013 55.7696 93.5266 56.183C94.9519 56.5963 96.0666 57.7017 96.9893 58.8644C97.9106 60.027 98.7226 61.299 99.8506 62.2617C100.833 63.099 102.016 63.667 103.212 64.155C106.755 65.599 110.995 66.367 114.267 64.383C114.935 63.979 115.536 63.4723 116.14 62.9776C117.667 61.7283 119.297 60.5057 121.212 60.0323C123.125 59.559 125.399 60.015 126.556 61.611C127.516 62.9363 127.515 64.787 126.884 66.2977C126.253 67.807 125.08 69.027 123.821 70.0723C119.689 73.5083 114.291 75.4456 108.923 75.2056C105.453 75.051 102.068 74.019 98.9013 72.5937Z" fill="#21214D"/>
<path opacity="0.3" d="M44.2333 35.5683C49.3133 31.9403 53.372 29.687 56.3346 31.5537C59.296 33.4203 59.352 39.8177 54.992 42.1403C50.6306 44.463 38.2026 51.7897 20.8546 47.2203C18.1946 46.7057 21.724 40.423 28.988 40.551C36.2533 40.6803 42.4226 36.8283 44.2333 35.5683Z" fill="#21214D"/>
<path opacity="0.3" d="M109.183 35.5683C104.103 31.9403 100.044 29.687 97.0827 31.5537C94.12 33.4203 94.064 39.8177 98.424 42.1403C102.785 44.463 115.213 51.7897 132.561 47.2203C135.221 46.7057 131.692 40.423 124.428 40.551C117.163 40.6803 110.993 36.8283 109.183 35.5683Z" fill="#21214D"/>
<path d="M111.34 120.458C108.896 124.639 99.8293 125.055 97.1147 121.272C91.304 114.087 81.5493 115.426 76.6986 115.426C71.8666 115.426 62.1106 114.087 56.3013 121.272C53.5866 125.055 44.52 124.639 42.076 120.458C40.4293 117.598 36.9 113.128 42.8186 104.223L42.8547 104.168C43.8133 102.992 44.8093 101.871 45.8413 100.803C54.3293 91.9524 65.044 86.6671 76.6986 86.6671C88.3546 86.6671 99.0867 91.9524 107.576 100.803C108.607 101.871 109.603 102.992 110.561 104.168L110.597 104.223C116.516 113.128 112.987 117.598 111.34 120.458Z" fill="#21214D"/>
<path d="M47.6506 107.698C49.7506 111.011 56.248 109.2 58.9626 107.698C65.8933 103.463 73.5853 103.952 76.8613 103.952C80.1373 103.952 87.5226 103.463 94.4533 107.698C97.168 109.2 103.667 111.011 105.765 107.698C106.327 106.808 106.897 105.712 107.257 104.451C107.535 103.483 108.097 101.338 107.328 100.547C106.369 99.5604 105.384 98.6191 104.371 97.7258C103.357 96.8311 102.319 95.9858 101.255 95.1898C94.0053 89.7658 85.6226 86.6671 76.6986 86.6671C67.776 86.6671 59.404 89.7645 52.16 95.1898C51.0973 95.9845 50.0573 96.8311 49.0453 97.7244C48.032 98.6191 47.0466 99.5604 46.0867 100.547C45.3187 101.338 45.8813 103.483 46.1573 104.451C46.5187 105.712 47.0893 106.808 47.6506 107.698Z" fill="white"/>
<path d="M47.6506 107.698C49.7506 111.011 56.248 109.2 58.9626 107.698C65.8933 103.463 73.5853 103.952 76.8613 103.952C80.1373 103.952 87.5226 103.463 94.4533 107.698C97.168 109.2 103.667 111.011 105.765 107.698C106.327 106.808 106.897 105.712 107.257 104.451C107.535 103.483 108.097 101.338 107.328 100.547C106.369 99.5604 105.384 98.6191 104.371 97.7258C103.357 96.8311 102.319 95.9858 101.255 95.1898C94.0053 89.7658 85.6226 86.6671 76.6986 86.6671C67.776 86.6671 59.404 89.7645 52.16 95.1898C51.0973 95.9845 50.0573 96.8311 49.0453 97.7244C48.032 98.6191 47.0466 99.5604 46.0867 100.547C45.3187 101.338 45.8813 103.483 46.1573 104.451C46.5187 105.712 47.0893 106.808 47.6506 107.698Z" fill="white"/>
<path d="M47.6504 107.696C49.6599 110.875 55.7291 109.336 58.6113 107.879C58.57 107.525 58.5212 107.161 58.4798 106.782C55.5398 108.24 49.347 109.97 47.2305 106.997C47.3705 107.244 47.5104 107.474 47.6504 107.696Z" fill="white"/>
<path d="M47.2305 106.997C49.347 109.97 55.5398 108.24 58.4798 106.782C58.4305 106.404 58.3893 106.016 58.348 105.612C55.3092 107.078 49.1577 108.742 46.8271 106.214C46.9591 106.486 47.0905 106.742 47.2305 106.997Z" fill="white"/>
<path d="M46.8271 106.214C49.1577 108.742 55.3092 107.078 58.348 105.612C58.3066 105.209 58.2735 104.798 58.2415 104.369C55.0957 105.843 49.0095 107.442 46.4648 105.367C46.5715 105.663 46.6954 105.942 46.8271 106.214Z" fill="white"/>
<path d="M46.4648 105.367C49.0095 107.442 55.0957 105.843 58.2415 104.369C58.2082 103.941 58.1843 103.505 58.167 103.061C54.9717 104.535 48.8031 106.321 46.1514 104.451C46.242 104.764 46.3495 105.07 46.4648 105.367Z" fill="white"/>
<path d="M58.6113 107.879C58.7353 107.821 58.8513 107.761 58.9583 107.696C58.933 107.334 58.909 106.956 58.8757 106.568C58.761 106.635 58.6033 106.716 58.4798 106.782C58.5212 107.161 58.57 107.525 58.6113 107.879Z" fill="white"/>
<path d="M58.4798 106.782C58.6038 106.717 58.7595 106.634 58.8747 106.568C58.8507 106.181 58.8256 105.786 58.8096 105.374C58.6532 105.449 58.5044 105.53 58.348 105.612C58.3893 106.016 58.4305 106.404 58.4798 106.782Z" fill="white"/>
<path d="M58.348 105.612C58.5044 105.53 58.6532 105.449 58.8096 105.374C58.7842 104.962 58.7681 104.535 58.7601 104.099C58.5789 104.189 58.4226 104.27 58.2415 104.369C58.2749 104.798 58.3066 105.209 58.348 105.612Z" fill="white"/>
<path d="M58.2415 104.369C58.4226 104.27 58.5789 104.189 58.7601 104.099C58.7441 103.671 58.7448 103.217 58.7448 102.764C58.5472 102.862 58.3563 102.962 58.167 103.061C58.183 103.505 58.2082 103.941 58.2415 104.369Z" fill="white"/>
<path d="M58.9583 107.696C65.8842 103.471 73.5587 103.95 76.8444 103.95C76.8444 103.628 76.8444 103.29 76.8444 102.944C73.4351 102.944 65.7521 102.484 58.8757 106.568C58.909 106.956 58.933 107.334 58.9583 107.696Z" fill="white"/>
<path d="M58.8757 106.568C65.7521 102.484 73.4351 102.944 76.8444 102.944C76.8444 102.599 76.8304 102.245 76.8304 101.874C73.1575 101.874 65.5813 101.586 58.8037 105.374C58.8197 105.786 58.8448 106.181 58.8688 106.568L58.8757 106.568Z" fill="white"/>
<path d="M58.8083 105.375C65.5859 101.586 73.162 101.875 76.835 101.875C76.835 101.504 76.835 101.116 76.835 100.721C72.8903 100.721 65.4293 100.624 58.7588 104.099C58.7721 104.535 58.7829 104.963 58.8083 105.375Z" fill="white"/>
<path d="M58.7601 104.099C65.4306 100.624 72.8913 100.721 76.8359 100.721C76.8359 100.325 76.8363 99.9228 76.8229 99.5111C72.7629 99.5111 65.3676 99.4281 58.7383 102.764C58.7383 103.217 58.7386 103.67 58.7546 104.098L58.7601 104.099Z" fill="white"/>
<path d="M76.8444 103.95C76.8577 103.95 76.8577 103.95 76.8604 103.95C76.8604 103.628 76.8604 103.29 76.8604 102.944C76.847 102.944 76.8444 102.944 76.8444 102.944C76.8444 103.29 76.8444 103.628 76.8444 103.95Z" fill="white"/>
<path d="M76.8444 102.944C76.8444 102.944 76.8577 102.944 76.8604 102.944C76.8604 102.599 76.8604 102.245 76.8604 101.874C76.847 101.874 76.8443 101.875 76.835 101.875C76.835 102.245 76.8486 102.599 76.8486 102.944L76.8444 102.944Z" fill="white"/>
<path d="M76.835 101.875C76.8483 101.875 76.851 101.874 76.8604 101.874C76.8604 101.504 76.8604 101.116 76.8604 100.721C76.847 100.721 76.8443 100.721 76.835 100.721C76.835 101.116 76.835 101.504 76.835 101.875Z" fill="white"/>
<path d="M76.8359 100.721C76.8493 100.721 76.852 100.721 76.8613 100.721C76.8613 100.325 76.8613 99.9226 76.8613 99.5109C76.848 99.5109 76.8455 99.5109 76.8281 99.5109C76.8415 99.9226 76.8411 100.325 76.8411 100.721L76.8359 100.721Z" fill="white"/>
<path d="M76.8604 103.95C80.138 103.95 87.5167 103.463 94.4508 107.696C94.5255 107.359 94.5987 107.014 94.6729 106.643C87.7718 102.509 80.278 102.944 76.8604 102.944C76.8604 103.29 76.8604 103.628 76.8604 103.95Z" fill="white"/>
<path d="M76.8604 102.944C80.278 102.944 87.7718 102.509 94.6729 106.643C94.7475 106.281 94.8212 105.909 94.887 105.522C88.0436 101.586 80.5826 101.874 76.8604 101.874C76.8604 102.245 76.8604 102.599 76.8604 102.944Z" fill="white"/>
<path d="M76.8604 101.874C80.5826 101.874 88.0436 101.586 94.887 105.522C94.9617 105.135 95.0272 104.732 95.085 104.329C88.2991 100.598 80.8873 100.729 76.8604 100.721C76.8604 101.116 76.8604 101.504 76.8604 101.874Z" fill="white"/>
<path d="M76.8604 100.721C80.8873 100.734 88.2991 100.598 95.085 104.329C95.1423 103.917 95.1995 103.497 95.2412 103.06C88.4884 99.4286 81.0283 99.5191 76.8613 99.5109C76.8613 99.9226 76.8604 100.325 76.8604 100.721Z" fill="white"/>
<path d="M94.4508 107.696C97.1684 109.203 103.666 111.007 105.766 107.696C105.906 107.474 106.047 107.244 106.178 106.997C103.996 110.077 97.4646 108.142 94.6729 106.643C94.5987 107.014 94.5255 107.359 94.4508 107.696Z" fill="white"/>
<path d="M94.6729 106.643C97.4646 108.142 103.996 110.077 106.178 106.997C106.318 106.742 106.458 106.486 106.581 106.214C104.209 108.808 97.8434 107.013 94.887 105.522C94.8212 105.909 94.7475 106.281 94.6729 106.643Z" fill="white"/>
<path d="M94.8877 105.523C97.8441 107.014 104.209 108.808 106.581 106.214C106.713 105.942 106.837 105.663 106.952 105.367C104.391 107.459 98.206 105.803 95.085 104.329C95.0276 104.732 94.9614 105.136 94.8877 105.523Z" fill="white"/>
<path d="M95.085 104.329C98.206 105.803 104.391 107.459 106.952 105.367C107.059 105.07 107.167 104.764 107.257 104.451C104.606 106.321 98.4364 104.543 95.2412 103.06C95.1995 103.497 95.1423 103.917 95.085 104.329Z" fill="white"/>
<path d="M46.1524 104.451C48.7383 106.271 54.6762 104.625 57.9291 103.167C57.8051 101.726 57.5169 99.0989 58.0274 97.8224C54.5274 99.2719 49.109 101.167 46.0867 100.549C45.3208 101.339 45.8812 103.48 46.1524 104.451Z" fill="white"/>
<path d="M57.9281 103.167C58.0108 103.134 58.0929 103.102 58.167 103.061C58.0763 101.603 57.8127 98.9597 58.348 97.6749C58.2414 97.7243 58.1335 97.7725 58.0264 97.8221C57.5158 99.0986 57.8044 101.726 57.9281 103.167Z" fill="white"/>
<path d="M58.167 103.061C64.9281 99.4289 72.6199 99.5109 76.8116 99.5109C76.7983 98.1438 76.7986 95.5991 76.796 94.4132C71.9125 94.4132 64.8544 94.6679 58.3487 97.6736C57.8134 98.9584 58.0763 101.603 58.167 103.061Z" fill="white"/>
<path d="M76.8116 99.5109C76.8249 99.5109 76.8255 99.5109 76.8281 99.5109C76.8415 98.1438 76.8532 95.5991 76.8532 94.4132C76.8372 94.4132 76.812 94.4132 76.796 94.4132C76.8093 95.5991 76.8089 98.1438 76.8116 99.5109Z" fill="white"/>
<path d="M76.8281 99.5109C76.8441 99.5109 76.8533 99.5109 76.8613 99.5109C76.8747 98.1438 76.8737 95.5991 76.8604 94.4132C76.8604 94.4132 76.86 94.4132 76.8467 94.4132C76.8467 95.5991 76.8306 98.1438 76.8213 99.5109H76.8281Z" fill="white"/>
<path d="M76.8613 99.5109C81.0283 99.5242 88.4884 99.4284 95.2412 103.06C95.4388 101.652 95.8095 99.0665 95.3812 97.8312C88.8177 94.6936 81.7933 94.4215 76.8604 94.4132C76.8737 95.5991 76.8747 98.1438 76.8613 99.5109Z" fill="white"/>
<path d="M95.2412 103.06C98.4364 104.543 104.606 106.321 107.257 104.451C107.529 103.479 108.097 101.339 107.323 100.549C104.308 101.166 98.8812 99.2724 95.3812 97.8312C95.8095 99.0665 95.4388 101.652 95.2412 103.06Z" fill="white"/>
<path d="M46.085 100.549C49.1072 101.167 54.5264 99.2715 58.0264 97.8221C58.5535 96.3891 59.0881 94.9893 59.6481 93.6388C56.14 95.08 52.7225 96.7681 49.0413 97.7234C48.0284 98.621 47.0403 99.5607 46.085 100.549Z" fill="white"/>
<path d="M58.0274 97.8224C59.205 97.2624 60.4078 96.7936 61.61 96.3982C61.9147 95.0641 62.2442 93.7715 62.5736 92.5363C61.5854 92.8656 60.6133 93.2438 59.6497 93.6391C59.0897 94.9897 58.5545 96.3895 58.0274 97.8224Z" fill="white"/>
<path d="M61.61 96.3982C67.1276 94.5948 72.7196 94.4132 76.796 94.4132C76.796 93.0297 76.7822 91.6868 76.7822 90.3939C71.9812 90.3806 67.1304 90.9793 62.568 92.5358C62.2387 93.771 61.9092 95.0637 61.6045 96.3978L61.61 96.3982Z" fill="white"/>
<path d="M76.7943 94.4132C76.8103 94.4132 76.8356 94.4132 76.8516 94.4132C76.8382 93.0297 76.8264 91.6866 76.8184 90.3937C76.805 90.3937 76.7932 90.3937 76.7852 90.3937C76.7852 91.6866 76.7982 93.0297 76.7982 94.4132H76.7943Z" fill="white"/>
<path d="M76.8532 94.4132C76.8665 94.4132 76.8659 94.4132 76.8659 94.4132C76.8659 93.0297 76.8523 91.6866 76.8496 90.3937C76.8363 90.3937 76.8336 90.3937 76.8242 90.3937C76.8376 91.6866 76.8501 93.0297 76.8581 94.4132H76.8532Z" fill="white"/>
<path d="M76.8604 94.4132C80.8709 94.4265 86.274 94.5937 91.6846 96.3559C91.3799 95.0218 91.0751 93.7383 90.7458 92.5031C86.2823 90.9877 81.5389 90.4102 76.8447 90.3937C76.8581 91.6866 76.8604 93.0297 76.8604 94.4132Z" fill="white"/>
<path d="M91.6846 96.3559C92.9199 96.7595 94.1541 97.2465 95.3812 97.8312C94.8624 96.39 94.32 94.9899 93.7682 93.6476C92.7718 93.2359 91.767 92.8489 90.7458 92.5031C91.0751 93.7383 91.3799 95.0218 91.6846 96.3559Z" fill="white"/>
<path d="M95.3812 97.8312C98.8812 99.2724 104.308 101.166 107.323 100.549C106.367 99.5604 105.379 98.6207 104.367 97.7231C100.685 96.776 97.2682 95.0805 93.7682 93.6476C94.32 94.9899 94.8624 96.39 95.3812 97.8312Z" fill="white"/>
<path d="M49.043 97.7234C53.7454 96.5046 58.003 94.0927 62.5736 92.5363C62.6802 92.2151 62.7875 91.901 62.8945 91.588C58.3899 93.128 54.3462 95.607 49.8086 97.0646C49.5534 97.2787 49.2983 97.501 49.043 97.7234Z" fill="white"/>
<path d="M49.8086 97.0646C54.3462 95.607 58.3899 93.128 62.8945 91.588C63.0012 91.2751 63.1084 90.9709 63.2155 90.6661C58.8591 92.1649 54.7497 94.4463 50.5827 96.4227C50.3192 96.6285 50.0639 96.8422 49.8086 97.0646Z" fill="white"/>
<path d="M50.5827 96.4227C54.7497 94.4463 58.8591 92.1649 63.2155 90.6661C63.3222 90.3532 63.4289 90.0564 63.5443 89.7599C59.3277 91.2258 55.1692 93.3012 51.3646 95.7964C51.101 96.0022 50.838 96.2085 50.5827 96.4227Z" fill="white"/>
<path d="M51.3646 95.7964C55.1692 93.3012 59.3277 91.2258 63.5443 89.7599C63.6509 89.4552 63.758 89.1584 63.8734 88.8702C59.7311 90.3196 55.8028 92.4608 52.1546 95.1867C51.8912 95.3843 51.6281 95.5905 51.3646 95.7964Z" fill="white"/>
<path d="M62.5719 92.5361C67.1425 90.9796 72.009 90.3854 76.8184 90.3937C76.805 90.0725 76.7935 89.7527 76.7855 89.4398C72.0337 89.4265 67.3805 90.0482 62.8923 91.5882C62.7856 91.9012 62.679 92.2149 62.5719 92.5361Z" fill="white"/>
<path d="M62.8945 91.588C67.3828 90.048 72.035 89.4311 76.7868 89.4393C76.7734 89.1182 76.7709 88.8043 76.7536 88.4913C72.1336 88.4913 67.5472 89.1673 63.2155 90.6661C63.1084 90.9709 63.0012 91.2751 62.8945 91.588Z" fill="white"/>
<path d="M63.2155 90.6661C67.5472 89.1673 72.1336 88.4913 76.7536 88.4913C76.7402 88.1865 76.7385 87.8741 76.7292 87.5695C72.2328 87.5695 67.7029 88.3023 63.5443 89.7599C63.4289 90.0564 63.3222 90.3532 63.2155 90.6661Z" fill="white"/>
<path d="M63.5443 89.7599C67.7029 88.3023 72.2328 87.5695 76.7292 87.5695C76.7158 87.2648 76.7036 86.9679 76.6956 86.6632C72.2568 86.6632 67.9663 87.429 63.8734 88.8702C63.758 89.1584 63.6509 89.4552 63.5443 89.7599Z" fill="white"/>
<path d="M76.8193 90.394C76.8193 90.0728 76.8193 89.7525 76.8193 89.4396C76.806 89.4396 76.7948 89.4393 76.7868 89.4393C76.8001 89.7522 76.8113 90.0728 76.8193 90.394Z" fill="white"/>
<path d="M76.7868 89.4393C76.8001 89.4393 76.8113 89.4396 76.8193 89.4396C76.806 89.1185 76.8063 88.8043 76.8063 88.4913C76.7903 88.4913 76.773 88.4913 76.749 88.4913C76.765 88.8043 76.7742 89.1182 76.7822 89.4393H76.7868Z" fill="white"/>
<path d="M76.7536 88.4913C76.7789 88.4913 76.7942 88.4913 76.8102 88.4913C76.8102 88.1865 76.8102 87.8741 76.8102 87.5695C76.7769 87.5695 76.7609 87.5695 76.7275 87.5695C76.7409 87.8741 76.7442 88.1865 76.7536 88.4913Z" fill="white"/>
<path d="M76.7292 87.5695C76.7625 87.5695 76.7769 87.5695 76.8102 87.5695C76.8102 87.2648 76.8109 86.9679 76.8109 86.6632C76.7695 86.6632 76.7356 86.6632 76.6956 86.6632C76.709 86.9679 76.7212 87.2648 76.7292 87.5695Z" fill="white"/>
<path d="M76.8193 90.394C81.5299 90.41 86.274 90.9877 90.7458 92.5031C90.6471 92.1819 90.539 91.8684 90.432 91.5555C86.0261 90.0649 81.4723 89.4478 76.8193 89.4396C76.8193 89.7525 76.8193 90.0728 76.8193 90.394Z" fill="white"/>
<path d="M76.8193 89.4396C81.4723 89.4529 86.0261 90.0649 90.432 91.5555C90.3253 91.2508 90.2187 90.9381 90.1117 90.6333C85.8541 89.1757 81.3491 88.5077 76.8115 88.4913C76.8115 88.8043 76.8119 89.1182 76.8252 89.4393L76.8193 89.4396Z" fill="white"/>
<path d="M76.8115 88.4913C81.3491 88.5077 85.8541 89.1757 90.1117 90.6333C90.005 90.3286 89.8971 90.0317 89.79 89.727C85.6807 88.3024 81.2339 87.586 76.8115 87.5695C76.8115 87.8741 76.8115 88.1865 76.8115 88.4913Z" fill="white"/>
<path d="M76.8115 87.5695C81.2339 87.586 85.6807 88.3024 89.79 89.727C89.6754 89.4306 89.5681 89.1338 89.4528 88.8455C85.4176 87.4374 81.1755 86.6797 76.8109 86.6632C76.8109 86.9679 76.8115 87.2648 76.8115 87.5695Z" fill="white"/>
<path d="M90.7458 92.5031C95.3492 94.0595 99.6396 96.5043 104.367 97.7231C104.111 97.5007 103.856 97.279 103.601 97.0649C99.0383 95.6073 94.9696 93.1036 90.432 91.5555C90.539 91.8684 90.6471 92.1819 90.7458 92.5031Z" fill="white"/>
<path d="M90.432 91.5555C94.9696 93.1036 99.0383 95.6073 103.601 97.0649C103.345 96.8508 103.09 96.6288 102.826 96.423C98.6262 94.4383 94.501 92.1403 90.1117 90.6333C90.2187 90.9381 90.3253 91.2508 90.432 91.5555Z" fill="white"/>
<path d="M90.1117 90.6333C94.501 92.1403 98.6262 94.4383 102.826 96.423C102.571 96.2088 102.308 96.0025 102.045 95.7967C98.2153 93.2932 94.023 91.2012 89.79 89.727C89.8971 90.0317 90.005 90.3286 90.1117 90.6333Z" fill="white"/>
<path d="M89.79 89.727C94.023 91.2012 98.2153 93.2932 102.045 95.7967C101.781 95.5908 101.516 95.3846 101.253 95.187C97.5883 92.4446 93.628 90.295 89.4528 88.8455C89.5681 89.1338 89.6754 89.4306 89.79 89.727Z" fill="white"/>
</svg>
