<svg width="154" height="154" viewBox="0 0 154 154" fill="none" xmlns="http://www.w3.org/2000/svg">
<circle cx="76.665" cy="76.6651" r="76.665" fill="currentColor"/>
<path d="M61.343 59.3861C61.343 67.1328 55.8737 73.4127 49.127 73.4127C42.3803 73.4127 36.9097 67.1328 36.9097 59.3861C36.9097 51.6394 42.3803 45.3594 49.127 45.3594C55.8737 45.3594 61.343 51.6394 61.343 59.3861Z" fill="#21214D"/>
<path d="M116.423 59.3861C116.423 67.1328 110.954 73.4127 104.207 73.4127C97.4591 73.4127 91.9897 67.1328 91.9897 59.3861C91.9897 51.6394 97.4591 45.3594 104.207 45.3594C110.954 45.3594 116.423 51.6394 116.423 59.3861Z" fill="#21214D"/>
<path d="M51.2083 55.2233C51.2083 57.6726 49.223 59.658 46.775 59.658C44.3256 59.658 42.3403 57.6726 42.3403 55.2233C42.3403 52.7739 44.3256 50.7886 46.775 50.7886C49.223 50.7886 51.2083 52.7739 51.2083 55.2233Z" fill="white"/>
<path d="M106.288 55.2233C106.288 57.6726 104.302 59.658 101.853 59.658C99.4038 59.658 97.4185 57.6726 97.4185 55.2233C97.4185 52.7739 99.4038 50.7886 101.853 50.7886C104.302 50.7886 106.288 52.7739 106.288 55.2233Z" fill="white"/>
<path d="M76.667 130.382C91.005 130.382 100.947 125.941 108.145 120.38C115.359 114.807 119.829 108.105 123.229 103.506H123.229C126.085 99.653 126.246 96.0557 125.393 93.2964L125.307 93.0327L125.304 93.0229C125.178 92.6265 125.018 92.2434 124.839 91.8696L124.837 91.8647C124.19 90.4806 123.302 89.3788 122.467 88.6646C122.049 88.3071 121.655 88.0569 121.324 87.9136C120.998 87.7724 120.789 87.7619 120.686 87.7837C113.004 91.3209 103.97 92.8362 95.8906 93.4712C87.7901 94.1079 80.5992 93.8628 76.667 93.8628C72.7341 93.8628 65.5422 94.1079 57.4414 93.4712C49.3618 92.8361 40.3274 91.3212 32.6455 87.7837C32.5417 87.7624 32.3346 87.773 32.0098 87.9136C31.6788 88.0568 31.2853 88.307 30.8672 88.6646C30.032 89.3788 29.1442 90.4806 28.4971 91.8647L28.4951 91.8696L28.3643 92.1519C28.2378 92.4359 28.1239 92.7261 28.0283 93.0239L28.0254 93.0327C27.1081 95.7373 27.1539 99.2982 29.8359 103.134L30.1035 103.506C33.504 108.105 37.9744 114.807 45.1885 120.38C52.3863 125.941 62.3289 130.382 76.667 130.382Z" fill="#21214D" stroke="#21214D"/>
<path d="M40.5093 103.333C50.1329 109.494 62.7952 113.232 76.6642 113.232C86.2434 113.232 95.2472 111.449 103.068 108.316C107.905 106.379 112.29 103.926 116.08 101.06C117.305 100.133 118.467 99.1635 119.561 98.1542C120.656 97.1462 121.684 96.0969 122.641 95.0115C122.838 94.7884 123.032 94.5637 123.222 94.3374C123.262 94.2904 123.303 94.2431 123.343 94.1956L123.401 94.124C123.591 93.8942 123.779 93.6629 123.964 93.43L124.02 93.3598L124.051 93.3196C124.482 92.772 124.895 92.2163 125.289 91.6529C124.522 90.012 123.428 88.7412 122.437 88.0008C122.135 87.7742 121.844 87.5968 121.574 87.4731C121.574 87.4736 121.574 87.474 121.573 87.4744C121.472 87.4298 121.375 87.3929 121.282 87.3631C121.204 87.3377 121.128 87.3175 121.056 87.3027C120.99 87.289 120.926 87.2791 120.865 87.2729L120.863 87.2757L120.865 87.271C120.738 87.271 120.632 87.2715 120.526 87.3035L120.526 87.3046C106.771 93.6652 88.5135 93.4754 79.2931 93.3796C78.3083 93.3694 77.4267 93.3602 76.6646 93.3602C75.9012 93.3602 75.0178 93.3694 74.032 93.3796C69.8567 93.423 63.8341 93.4855 57.2156 92.9517C49.2096 92.3048 40.3321 90.785 32.8001 87.3035C32.7157 87.28 32.6225 87.27 32.5217 87.2731L32.4638 87.2729L32.4627 87.271C32.251 87.2923 32.0085 87.355 31.7544 87.4722L31.7575 87.4784L31.7566 87.4788L31.7537 87.4731C30.5892 88.0025 29.0433 89.5163 28.0376 91.6548C28.2387 91.9407 28.4496 92.2263 28.6613 92.5122L28.6624 92.51L28.6616 92.5132C28.8734 92.799 29.0852 93.0743 29.3075 93.3602C29.3734 93.4419 29.4396 93.5244 29.506 93.6075C29.6631 93.804 29.8219 94.0027 29.9855 94.1961C30.1001 94.3315 30.2149 94.4638 30.3293 94.5966L30.33 94.5975C30.4479 94.7343 30.5657 94.8711 30.6838 95.0107C31.6472 96.1011 32.6756 97.1502 33.7661 98.156C34.8107 99.1101 35.9033 100.035 37.0613 100.914C37.1247 100.963 37.1883 101.011 37.2521 101.06C37.5961 101.32 37.945 101.576 38.2986 101.83C39.016 102.344 39.7507 102.843 40.5093 103.333Z" fill="white"/>
</svg>
